<?xml version="1.0" encoding="UTF-8"?>
<!DOCTYPE svg PUBLIC "-//W3C//DTD SVG 1.1//EN" "http://www.w3.org/Graphics/SVG/1.1/DTD/svg11.dtd">
<svg xmlns="http://www.w3.org/2000/svg" version="1.1" width="512px" height="512px" style="shape-rendering:geometricPrecision; text-rendering:geometricPrecision; image-rendering:optimizeQuality; fill-rule:evenodd; clip-rule:evenodd" xmlns:xlink="http://www.w3.org/1999/xlink">
<g><path style="opacity:0.998" fill="#ff5034" d="M 108.5,-0.5 C 206.5,-0.5 304.5,-0.5 402.5,-0.5C 443.564,2.77667 475.064,21.7767 497,56.5C 504.496,72.1706 509.329,88.504 511.5,105.5C 511.5,205.833 511.5,306.167 511.5,406.5C 505.168,457.342 477.501,490.508 428.5,506C 419.449,508.281 410.449,510.115 401.5,511.5C 303.833,511.5 206.167,511.5 108.5,511.5C 69.5976,508.803 39.0976,491.469 17,459.5C 7.40801,442.23 1.57467,423.896 -0.5,404.5C -0.5,306.5 -0.5,208.5 -0.5,110.5C 5.91764,44.0826 42.251,7.08263 108.5,-0.5 Z"/></g>
<g><path style="opacity:1" fill="#fffefd" d="M 136.5,108.5 C 136.5,107.833 136.833,107.5 137.5,107.5C 193.934,164.46 255.767,214.46 323,257.5C 337.309,216.766 336.976,176.099 322,135.5C 313.715,112.752 302.215,91.9186 287.5,73C 343.52,106.391 382.02,154.224 403,216.5C 412.395,249.213 412.895,282.046 404.5,315C 419.568,333.305 429.735,354.139 435,377.5C 436.425,388.801 436.759,400.135 436,411.5C 435.333,413.5 434.667,415.5 434,417.5C 432.951,418.517 431.784,418.684 430.5,418C 415.537,390.998 392.87,380.998 362.5,388C 358.5,389.333 354.5,390.667 350.5,392C 306.974,416.902 260.641,423.902 211.5,413C 148.416,396.887 97.5822,362.721 59,310.5C 55.7484,305.977 53.0817,301.31 51,296.5C 93.996,328.943 142.496,344.776 196.5,344C 215.895,342.658 234.562,338.325 252.5,331C 258.157,328.507 263.49,325.507 268.5,322C 218.297,281.464 173.13,235.964 133,185.5C 116.734,165.903 101.234,145.737 86.5,125C 129.676,161.787 174.676,196.454 221.5,229C 228.3,232.969 234.966,237.135 241.5,241.5C 204.156,199.435 169.156,155.102 136.5,108.5 Z"/></g>
<g><path style="opacity:1" fill="#ff9b8a" d="M 137.5,107.5 C 136.833,107.5 136.5,107.833 136.5,108.5C 134.93,107.125 134.097,105.459 134,103.5C 135.376,104.705 136.542,106.038 137.5,107.5 Z"/></g>
</svg>
